<?xml version="1.0" encoding="UTF-8"?>
<svg width="91px" height="23px" viewBox="0 0 91 23" version="1.1" xmlns="http://www.w3.org/2000/svg" xmlns:xlink="http://www.w3.org/1999/xlink">
    <!-- Generator: Sketch 52 (66869) - http://www.bohemiancoding.com/sketch -->
    <title>PayPal</title>
    <desc>Created with Sketch.</desc>
    <g id="Components---1440px" stroke="none" stroke-width="1" fill="none" fill-rule="evenodd">
        <g id="Center" transform="translate(-521.000000, -4684.000000)" fill="#0065F2" fill-rule="nonzero">
            <g id="Contents-6" transform="translate(0.000000, 4418.000000)">
                <g id="Content" transform="translate(450.000000, 60.000000)">
                    <g id="Logos" transform="translate(70.000000, 206.000000)">
                        <g id="PayPal" transform="translate(1.000000, 0.000000)">
                            <path d="M34.6617272,5 L29.695595,5 C29.3557574,5 29.0667501,5.26846344 29.0137413,5.63325788 L27.0052135,19.4804443 C26.9652753,19.7536453 27.1598832,20 27.4147614,20 L29.7856375,20 C30.1254752,20 30.4144824,19.7315366 30.4674913,19.3659525 L31.0091984,15.6311523 C31.0614811,15.2655682 31.3512145,14.9971048 31.690326,14.9971048 L33.2624383,14.9971048 C36.533739,14.9971048 38.421726,13.2757804 38.9147811,9.86471548 C39.1369827,8.37237459 38.9242211,7.19982102 38.2815793,6.37863873 C37.5757626,5.47691741 36.3238819,5 34.6617272,5 Z M35.2346586,10.0573775 C34.963079,11.9950519 33.6015498,11.9950519 32.2850419,11.9950519 L31.5356563,11.9950519 L32.0613881,8.37632258 C32.0926125,8.15760383 32.2668882,7.99652577 32.4702099,7.99652577 L32.8136783,7.99652577 C33.7104722,7.99652577 34.5564356,7.99652577 34.9935772,8.55240301 C35.2542647,8.88403432 35.334141,9.3767437 35.2346586,10.0573775 Z" id="Shape"></path>
                            <path d="M49.5752163,10.2318753 L47.1279017,10.2318753 C46.919413,10.2318753 46.7393205,10.3854551 46.7071878,10.5939923 L46.5988334,11.2835956 L46.4277082,11.033652 C45.8978927,10.2589776 44.7164562,10 43.5372616,10 C40.8328856,10 38.523069,12.0635399 38.0732115,14.9582173 C37.8393155,16.4021682 38.1718513,17.7828804 38.9848829,18.7457653 C39.7306599,19.6311074 40.7977638,20 42.0673783,20 C44.2464224,20 45.4547606,18.5884213 45.4547606,18.5884213 L45.3456589,19.2735075 C45.304559,19.5354965 45.5048278,19.7703832 45.7656256,19.7703832 L47.9700769,19.7703832 C48.3205473,19.7703832 48.6164668,19.5144169 48.6717649,19.1658511 L49.9944357,10.7272454 C50.0362829,10.4675149 49.8367614,10.2318753 49.5752163,10.2318753 Z M46.1639214,15.0304901 C45.9277835,16.4390574 44.8180852,17.384627 43.4027527,17.384627 C42.6920974,17.384627 42.1241709,17.1550102 41.7595024,16.7198675 C41.3978229,16.2877362 41.260325,15.6726643 41.3754048,14.9875781 C41.5958499,13.5910562 42.7242301,12.6146202 44.1178916,12.6146202 C44.8128543,12.6146202 45.3777916,12.8472484 45.7499329,13.2861552 C46.1228214,13.7295792 46.2707812,14.3484153 46.1639214,15.0304901 Z" id="Shape"></path>
                            <path d="M62.5673139,10 L60.0724599,10 C59.8344216,10 59.6107868,10.1094545 59.4758479,10.2925802 L56.0349052,14.9836871 L54.5763519,10.475706 C54.4846237,10.1936502 54.2033746,10 53.8849794,10 L51.4333362,10 C51.1354092,10 50.9284523,10.2694264 51.0232128,10.52903 L53.7712668,17.9929837 L51.187717,21.3685318 C50.9845505,21.6344501 51.1892332,22 51.540226,22 L54.0320477,22 C54.2685698,22 54.4899303,21.893352 54.6241112,21.7137344 L62.9220972,10.62796 C63.1207151,10.3627434 62.9167906,10 62.5673139,10 Z" id="Shape"></path>
                            <path d="M70.6620696,5 L65.69499,5 C65.3558633,5 65.0668432,5.26846344 65.013832,5.63325788 L63.0052147,19.4804443 C62.9652747,19.7536453 63.1598913,20 63.4133285,20 L65.9622247,20 C66.1989598,20 66.4015643,19.8120756 66.4385996,19.5562457 L67.0086518,15.6311523 C67.0609369,15.2655682 67.3506832,14.9971048 67.6898098,14.9971048 L69.261266,14.9971048 C72.5334386,14.9971048 74.4207837,13.2757804 74.9145869,9.86471548 C75.1375245,8.37237459 74.9233011,7.19982102 74.2806307,6.37863873 C73.5755087,5.47691741 72.3242984,5 70.6620696,5 Z M71.2350266,10.0573775 C70.964161,11.9950519 69.6025712,11.9950519 68.2852784,11.9950519 L67.5365856,11.9950519 L68.063067,8.37632258 C68.0942928,8.15760383 68.2671239,7.99652577 68.4711808,7.99652577 L68.8146645,7.99652577 C69.7107722,7.99652577 70.5574995,7.99652577 70.9946606,8.55240301 C71.2553597,8.88403432 71.3345134,9.3767437 71.2350266,10.0573775 Z" id="Shape" opacity="0.64"></path>
                            <path d="M85.5725847,10.2318753 L83.126645,10.2318753 C82.9166514,10.2318753 82.7380447,10.3854551 82.7066578,10.5939923 L82.5982981,11.2835956 L82.4264172,11.033652 C81.8965757,10.2589776 80.7158287,10 79.5365764,10 C76.8320681,10 74.5228858,12.0635399 74.0730062,14.9582173 C73.8398461,16.4021682 74.1709036,17.7828804 74.9839749,18.7457653 C75.7312831,19.6311074 76.7969446,20 78.0666212,20 C80.2457719,20 81.4541692,18.5884213 81.4541692,18.5884213 L81.3450622,19.2735075 C81.3039603,19.5354965 81.5042389,19.7703832 81.7665441,19.7703832 L83.9703559,19.7703832 C84.3193488,19.7703832 84.6167775,19.5144169 84.671331,19.1658511 L85.9948138,10.7272454 C86.0351684,10.4675149 85.8348898,10.2318753 85.5725847,10.2318753 Z M82.1611228,15.0304901 C81.926468,16.4390574 80.8152207,17.384627 79.399819,17.384627 C78.6906235,17.384627 78.1211747,17.1550102 77.7564883,16.7198675 C77.3947911,16.2877362 77.2587811,15.6726643 77.3723719,14.9875781 C77.5943224,13.5910562 78.7212632,12.6146202 80.114993,12.6146202 C80.8099896,12.6146202 81.3749546,12.8472484 81.747114,13.2861552 C82.1215154,13.7295792 82.2694825,14.3484153 82.1611228,15.0304901 Z" id="Shape" opacity="0.64"></path>
                            <path d="M87.980322,5.38056638 L86.0050532,19.4804716 C85.96635,19.7536583 86.15494,20 86.4005292,20 L88.3863534,20 C88.7163859,20 88.9964561,19.7315507 89.047122,19.3659859 L90.9949468,5.52031793 C91.03365,5.24713128 90.84506,5 90.5994708,5 L88.375798,5 C88.1794674,5.00078956 88.0105809,5.16185914 87.980322,5.38056638 Z" id="Shape" opacity="0.64"></path>
                            <path d="M17.1742811,6 C17.1540624,6.13518436 17.1309554,6.2733896 17.1049599,6.41537095 C16.2117284,11.2117725 13.1558224,12.868725 9.25289885,12.868725 L7.2656934,12.868725 C6.7883886,12.868725 6.38618168,13.2312306 6.3118059,13.7236339 L5.29437404,20.472279 L5.00625813,22.385251 C4.95787776,22.7084851 5.19616911,23 5.50811416,23 L9.03265987,23 C9.45003079,23 9.80457943,22.6828076 9.87029008,22.2523323 L9.90495064,22.0650378 L10.5685559,17.6605953 L10.6111596,17.4189249 C10.6761481,16.9869391 11.0314188,16.6697468 11.4487898,16.6697468 L11.9759191,16.6697468 C15.3907064,16.6697468 18.0639021,15.2197246 18.8452089,11.0237228 C19.1715958,9.2708574 19.0026256,7.80724123 18.139,6.7778765 C17.8776016,6.46748112 17.5533809,6.20995113 17.1742811,6 Z" id="Shape" opacity="0.64"></path>
                            <path d="M16.0537792,5.3175114 C15.9155754,5.27818003 15.7729841,5.24242424 15.6267367,5.21024403 C15.479758,5.17877894 15.3291232,5.15088943 15.1741009,5.12657549 C14.631523,5.0407616 14.0370272,5 13.4001197,5 L8.02406435,5 C7.89171043,5 7.76593765,5.02931975 7.65332713,5.08223831 C7.40543775,5.19880218 7.22116599,5.42835434 7.17656053,5.70939483 L6.03290567,12.7933315 L6,13 C6.07531742,12.5337445 6.4826165,12.190489 6.96596424,12.190489 L8.97832879,12.190489 C12.9306654,12.190489 16.0252609,10.6208099 16.9298012,6.0798248 C16.956857,5.94538303 16.9795254,5.81451685 17,5.68651113 C16.7711228,5.56780191 16.5232334,5.46625548 16.2563318,5.37972647 C16.1905205,5.358273 16.1225155,5.33753464 16.0537792,5.3175114 Z" id="Shape"></path>
                            <path d="M7.0495743,5.45214312 C7.0943033,5.17383526 7.27908536,4.9465151 7.52766124,4.83179277 C7.64131687,4.77938874 7.7667047,4.75035408 7.89942516,4.75035408 L13.2903686,4.75035408 C13.92904,4.75035408 14.5251821,4.79071934 15.0692627,4.87569884 C15.2247142,4.89977637 15.3757662,4.92739471 15.5231519,4.95855386 C15.6698044,4.99042117 15.8127905,5.0258293 15.951377,5.06477823 C16.0203037,5.08460678 16.0884971,5.1051435 16.1552239,5.12568021 C16.4228646,5.21136787 16.6714405,5.31263511 16.9009516,5.42948192 C17.170792,3.76742452 16.8987518,2.63578084 15.9682421,1.6110697 C14.9424083,0.482966828 13.0909213,0 10.7217512,0 L3.8437521,0 C3.35979907,0 2.94697246,0.339918002 2.87217972,0.802348118 L0.00732442661,18.3399925 C-0.0491367604,18.6869922 0.22803634,19 0.590267851,19 L4.83658908,19 L5.90275227,12.4672009 L7.0495743,5.45214312 Z" id="Shape" opacity="0.81"></path>
                        </g>
                    </g>
                </g>
            </g>
        </g>
    </g>
</svg>